{
	"asset": {
		"generator": "Khronos glTF Blender I/O v3.2.40",
		"version": "2.0"
	},
	"scene": 0,
	"scenes": [
		{
			"name": "Scene",
			"nodes": [0]
		}
	],
	"nodes": [
		{
			"mesh": 0,
			"name": "Cube_Finished_Cube.001",
			"rotation": [0.7071068286895752, 0, 0, 0.7071067094802856]
		}
	],
	"materials": [
		{
			"doubleSided": true,
			"name": "Material.001",
			"normalTexture": {
				"index": 0
			},
			"pbrMetallicRoughness": {
				"baseColorTexture": {
					"index": 1
				},
				"metallicFactor": 0,
				"roughnessFactor": 0.4307900369167328
			}
		}
	],
	"meshes": [
		{
			"name": "Cube_Finished_Cube.001",
			"primitives": [
				{
					"attributes": {
						"POSITION": 0,
						"NORMAL": 1,
						"TEXCOORD_0": 2
					},
					"indices": 3,
					"material": 0
				}
			]
		}
	],
	"textures": [
		{
			"sampler": 0,
			"source": 0
		},
		{
			"sampler": 0,
			"source": 1
		}
	],
	"images": [
		{
			"mimeType": "image/png",
			"name": "cube-normal",
			"uri": "textures/cube/cube-normal.png"
		},
		{
			"mimeType": "image/jpeg",
			"name": "cube-diffuse",
			"uri": "textures/cube/cube-diffuse.jpg"
		}
	],
	"accessors": [
		{
			"bufferView": 0,
			"componentType": 5126,
			"count": 277,
			"max": [1, 1, 1],
			"min": [-1, -1, -1],
			"type": "VEC3"
		},
		{
			"bufferView": 1,
			"componentType": 5126,
			"count": 277,
			"type": "VEC3"
		},
		{
			"bufferView": 2,
			"componentType": 5126,
			"count": 277,
			"type": "VEC2"
		},
		{
			"bufferView": 3,
			"componentType": 5123,
			"count": 1284,
			"type": "SCALAR"
		}
	],
	"bufferViews": [
		{
			"buffer": 0,
			"byteLength": 3324,
			"byteOffset": 0
		},
		{
			"buffer": 0,
			"byteLength": 3324,
			"byteOffset": 3324
		},
		{
			"buffer": 0,
			"byteLength": 2216,
			"byteOffset": 6648
		},
		{
			"buffer": 0,
			"byteLength": 2568,
			"byteOffset": 8864
		}
	],
	"samplers": [
		{
			"magFilter": 9729,
			"minFilter": 9987
		}
	],
	"buffers": [
		{
			"byteLength": 11432,
			"uri": "Cube.bin"
		}
	]
}
